<?xml version="1.0" encoding="iso-8859-1"?>
<!-- Generator: Adobe Illustrator 19.0.0, SVG Export Plug-In . SVG Version: 6.00 Build 0)  -->
<svg version="1.1" id="Capa_1" xmlns="http://www.w3.org/2000/svg" xmlns:xlink="http://www.w3.org/1999/xlink" x="0px" y="0px"
	 viewBox="0 0 512 512" style="enable-background:new 0 0 512 512;" xml:space="preserve">
<g>
	<g>
		<path d="M448.799,0H63.2c-8.284,0-15,6.716-15,15v482c0,5.199,2.692,10.027,7.114,12.76c4.423,2.733,9.945,2.981,14.594,0.657
			L256,417.371l186.092,93.045c2.117,1.059,4.415,1.583,6.708,1.583c2.743,0,5.478-0.751,7.887-2.24
			c4.422-2.733,7.114-7.561,7.114-12.76V15C463.799,6.716,457.084,0,448.799,0z M433.799,472.729l-171.092-85.545
			c-2.111-1.056-4.41-1.583-6.708-1.583c-2.298,0-4.597,0.528-6.708,1.583L78.2,472.729V30h355.6V472.729z"/>
	</g>
</g>
<g>
	<g>
		<path d="M366.664,176.807c-1.764-5.43-6.458-9.388-12.108-10.209l-58.807-8.545l-26.3-53.29c-2.526-5.121-7.74-8.363-13.45-8.363
			c-5.709,0-10.924,3.242-13.451,8.362l-26.296,53.289l-58.809,8.545c-5.651,0.821-10.345,4.779-12.109,10.209
			c-1.764,5.43-0.292,11.391,3.796,15.376l42.555,41.48l-10.048,58.565c-0.965,5.627,1.348,11.315,5.967,14.671
			c2.613,1.899,5.709,2.865,8.819,2.865c2.387,0,4.783-0.569,6.978-1.723L256,280.391l52.603,27.649
			c2.194,1.154,4.59,1.723,6.978,1.723c0.017,0,0.034,0,0.05,0c8.271-0.016,14.971-6.726,14.971-15c0-1.152-0.13-2.274-0.376-3.352
			l-9.906-57.75l42.55-41.478C366.958,188.198,368.43,182.237,366.664,176.807z M293.733,217.683
			c-3.535,3.446-5.148,8.411-4.314,13.277l6.241,36.386l-32.681-17.178c-2.185-1.148-4.582-1.723-6.979-1.723
			c-2.398,0-4.794,0.574-6.98,1.723l-32.675,17.176l6.243-36.383c0.835-4.867-0.779-9.832-4.315-13.278l-26.437-25.768l36.535-5.309
			c4.886-0.71,9.109-3.779,11.294-8.207l16.336-33.104l16.338,33.105c2.185,4.427,6.409,7.496,11.294,8.206l36.534,5.309
			L293.733,217.683z"/>
	</g>
</g>
<g>
</g>
<g>
</g>
<g>
</g>
<g>
</g>
<g>
</g>
<g>
</g>
<g>
</g>
<g>
</g>
<g>
</g>
<g>
</g>
<g>
</g>
<g>
</g>
<g>
</g>
<g>
</g>
<g>
</g>
</svg>
