<svg width="24px" height="24px" viewBox="0 0 24 24" xmlns="http://www.w3.org/2000/svg">
  <path d="M17,12 L17,17 L17.5,17 C17.7761424,17 18,17.2238576 18,17.5 C18,17.7761424 17.7761424,18 17.5,18 L15.5,18 C15.2238576,18 15,17.7761424 15,17.5 C15,17.2238576 15.2238576,17 15.5,17 L16,17 L16,12 L14,12 L14,12.5 C14,12.7761424 13.7761424,13 13.5,13 C13.2238576,13 13,12.7761424 13,12.5 L13,11.5 C13,11.2238576 13.2238576,11 13.5,11 L19.5,11 C19.7761424,11 20,11.2238576 20,11.5 L20,12.5 C20,12.7761424 19.7761424,13 19.5,13 C19.2238576,13 19,12.7761424 19,12.5 L19,12 L17,12 Z M10,6 L10,17 L11.5,17 C11.7761424,17 12,17.2238576 12,17.5 C12,17.7761424 11.7761424,18 11.5,18 L7.5,18 C7.22385763,18 7,17.7761424 7,17.5 C7,17.2238576 7.22385763,17 7.5,17 L9,17 L9,6 L5,6 L5,7.5 C5,7.77614237 4.77614237,8 4.5,8 C4.22385763,8 4,7.77614237 4,7.5 L4,5.5 C4,5.22385763 4.22385763,5 4.5,5 L14.5,5 C14.7761424,5 15,5.22385763 15,5.5 L15,7.5 C15,7.77614237 14.7761424,8 14.5,8 C14.2238576,8 14,7.77614237 14,7.5 L14,6 L10,6 Z"/>
</svg>
